<svg width="2561" height="1471" viewBox="0 0 2561 1471" fill="none" xmlns="http://www.w3.org/2000/svg">
<mask id="mask0_4_247" style="mask-type:alpha" maskUnits="userSpaceOnUse" x="0" y="0" width="2564" height="1474">
<path d="M0 0H2563.32V1473.91H0V0Z" fill="#D9D9D9"/>
</mask>
<g mask="url(#mask0_4_247)">
<g filter="url(#filter0_f_4_247)">
<path d="M2885.19 -863.515C3450.32 -38.6582 3185 1125.67 2292.59 1737.08C1400.18 2348.49 218.613 2175.46 -346.516 1350.6C-911.645 525.745 -646.331 -638.58 246.079 -1249.99C1138.49 -1861.4 2320.06 -1688.37 2885.19 -863.515Z" fill="url(#paint0_linear_4_247)"/>
</g>
<g filter="url(#filter1_f_4_247)">
<path d="M2193.75 699.12L493.285 1786.72L-761.901 -175.757L938.567 -1263.36L2193.75 699.12Z" fill="url(#paint1_linear_4_247)"/>
</g>
</g>
<defs>
<filter id="filter0_f_4_247" x="-843.507" y="-1815.67" width="4225.68" height="4118.42" filterUnits="userSpaceOnUse" color-interpolation-filters="sRGB">
<feFlood flood-opacity="0" result="BackgroundImageFix"/>
<feBlend mode="normal" in="SourceGraphic" in2="BackgroundImageFix" result="shape"/>
<feGaussianBlur stdDeviation="100" result="effect1_foregroundBlur_4_247"/>
</filter>
<filter id="filter1_f_4_247" x="-961.9" y="-1463.36" width="3355.65" height="3450.09" filterUnits="userSpaceOnUse" color-interpolation-filters="sRGB">
<feFlood flood-opacity="0" result="BackgroundImageFix"/>
<feBlend mode="normal" in="SourceGraphic" in2="BackgroundImageFix" result="shape"/>
<feGaussianBlur stdDeviation="100" result="effect1_foregroundBlur_4_247"/>
</filter>
<linearGradient id="paint0_linear_4_247" x1="246.079" y1="-1249.99" x2="2292.59" y2="1737.08" gradientUnits="userSpaceOnUse">
<stop stop-color="#00C2FF" stop-opacity="0"/>
<stop offset="1" stop-color="#FF29C3"/>
</linearGradient>
<linearGradient id="paint1_linear_4_247" x1="1343.52" y1="1242.92" x2="88.3333" y2="-719.559" gradientUnits="userSpaceOnUse">
<stop stop-color="#184BFF" stop-opacity="0"/>
<stop offset="1" stop-color="#174AFF"/>
</linearGradient>
</defs>
</svg>
