<svg width="2564" height="1474" viewBox="0 0 2564 1474" fill="none" xmlns="http://www.w3.org/2000/svg">
<path d="M-173.695 1080.93L-174.35 1078.14C-126.19 1066.86 -73.666 1054.91 -22.8769 1043.36C85.291 1018.76 187.465 995.522 228.393 982.961C234.413 981.177 243.884 978.672 255.877 975.51C367.304 946.078 706.377 856.509 886.235 665.168C1072.01 467.53 1137.91 270.521 1217.24 -7.47827L1220 -6.68944C1182.81 123.627 1147.97 240.506 1098.11 351.327C1043.57 472.535 976.913 572.889 888.322 667.137C707.9 859.075 368.231 948.802 256.606 978.287C244.639 981.449 235.182 983.948 229.215 985.712C188.2 998.293 85.9797 1021.54 -22.2477 1046.15C-73.0369 1057.71 -125.555 1069.65 -173.708 1080.93H-173.695Z" fill="black"/>
<path d="M-170.582 1089.08L-171.205 1086.28L245.4 993.739L248.738 992.957C630.535 903.031 812.293 778.375 897.54 689.635C1098.92 479.999 1187.8 225.399 1253.85 -18.5085L1256.62 -17.7595C1190.47 226.513 1101.44 481.517 899.606 691.624C820.207 774.279 698.291 847.448 537.248 909.096C409.205 958.109 293.11 985.453 249.401 995.748L246.049 996.537L-170.582 1089.08Z" fill="black"/>
<path d="M-170.589 1094.25L-171.205 1091.45C-166.675 1090.45 282.282 991.611 318.793 984.18C354.873 976.836 500.121 935.611 541.639 919.112C546.97 916.997 553.97 914.227 562.202 910.978C615.799 889.806 727.325 845.751 762.114 828.343C803.717 807.522 969.721 698.233 995.827 674.482C1022.54 650.167 1253.5 351.3 1286.36 289.818C1318.33 229.986 1409.27 -5.23752 1410.19 -7.604L1412.86 -6.56992C1411.94 -4.19679 1320.93 231.186 1288.88 291.17C1255.96 352.765 1024.53 652.236 997.754 676.603C969.297 702.495 801.326 811.924 763.392 830.909C728.497 848.376 616.885 892.458 563.255 913.643C555.023 916.891 548.029 919.656 542.698 921.777C501.081 938.309 355.522 979.626 319.369 986.991C282.885 994.422 -166.052 1093.25 -170.582 1094.25L-170.589 1094.25Z" fill="black"/>
<path d="M-169.847 1097.08L-170.377 1094.26C-165.787 1093.4 288.878 1007.9 325.369 1000.47C360.999 993.215 513.386 951.653 558.308 936.937C594.467 922.015 637.468 905.377 675.409 890.694C715.748 875.09 750.583 861.607 771.65 852.459C808.77 830.942 982.495 720.685 1012.18 697.59C1025.9 686.917 1091.78 609.599 1168.82 513.739C1234.61 431.893 1310.92 333.17 1327.81 301.571C1359.81 241.686 1479.88 -5.2178 1481.1 -7.70361L1483.67 -6.45076C1482.46 -3.96495 1362.36 242.992 1330.34 302.923C1313.36 334.702 1236.92 433.59 1171.06 515.536C1104.88 597.879 1029.66 687.627 1013.94 699.857C983.198 723.774 810.942 833.017 773.014 854.985L772.868 855.057C751.755 864.232 716.854 877.735 676.443 893.372C638.515 908.048 595.534 924.68 559.301 939.621C514.227 954.39 361.628 996.013 325.945 1003.28C289.434 1010.71 -165.251 1096.21 -169.841 1097.08H-169.847Z" fill="black"/>
<path d="M-169.933 1155.58L-170.284 1152.73C-167.84 1152.43 74.8734 1122.19 129.928 1115.38L145.524 1113.46C202.161 1106.47 296.958 1094.77 342.992 1087.44C369.893 1083.16 425.861 1073.85 475.246 1065.64C518.148 1058.5 552.215 1052.84 555.341 1052.44C602.845 1038.22 722.682 1011.51 776.683 1000.5C812.393 982.855 889.931 952.806 1007.15 911.184L1011.22 909.739C1039.83 893.631 1287.36 700.898 1324.41 670.054C1343.99 653.753 1515.12 363.451 1628.36 171.348C1660.4 116.991 1688.08 70.0525 1708.36 35.987C1741.24 -19.2378 1741.98 -19.3637 1743.09 -19.5493L1743.58 -16.7254C1743.96 -16.7917 1744.17 -16.9906 1744.17 -16.9972C1740.79 -13.7292 1689.84 72.7107 1630.83 172.806C1510.71 376.576 1346.2 655.649 1326.24 672.261C1291.76 700.964 1042.54 895.533 1012.51 912.304L1012.29 912.403L1008.11 913.888C890.805 955.537 813.313 985.572 777.783 1003.16L777.432 1003.28C723.516 1014.27 603.421 1041.02 556.036 1055.23L555.758 1055.29C554.023 1055.45 517.731 1061.49 475.71 1068.47C426.325 1076.68 370.35 1085.99 343.442 1090.27C297.355 1097.61 202.532 1109.31 145.875 1116.3L130.279 1118.22C75.2244 1125.03 -167.489 1155.26 -169.933 1155.57V1155.58Z" fill="black"/>
<path d="M2890.62 203.437L1921.16 747.756L1922.57 750.259L2892.03 205.941L2890.62 203.437Z" fill="black"/>
<path d="M1149.04 1002.95L1148.37 1000.16C1187.82 990.683 1250.87 975.225 1327.21 955.352L1327.93 958.129C1251.57 978.009 1188.5 993.474 1149.04 1002.95Z" fill="black"/>
<path d="M845.599 1057.99L845.148 1055.16C880.447 1049.5 947.435 1038.73 999.456 1030.1L999.926 1032.94C947.899 1041.57 880.904 1052.34 845.599 1057.99V1057.99Z" fill="black"/>
<path d="M604.322 1091.4L603.991 1088.55C668.317 1081.09 718.298 1075.26 728.113 1073.74C729.57 1073.51 731.901 1073.17 734.914 1072.75C740.861 1071.9 749.848 1070.61 759.789 1069.04L760.239 1071.87C750.279 1073.45 741.279 1074.74 735.325 1075.59C732.331 1076.02 730.007 1076.35 728.556 1076.57C718.695 1078.11 668.681 1083.94 604.329 1091.4H604.322Z" fill="black"/>
<path d="M369.933 1118.49L369.608 1115.64L413.775 1110.6C453.974 1106.01 498.962 1100.88 542.003 1095.93L542.327 1098.78C499.28 1103.74 454.292 1108.87 414.093 1113.45L369.926 1118.49H369.933Z" fill="black"/>
<path d="M173.67 1140.47L173.366 1137.62C236.168 1130.92 275.606 1126.59 290.593 1124.78C297.739 1123.91 309.706 1122.52 328.256 1120.38L328.581 1123.23C310.031 1125.36 298.07 1126.76 290.931 1127.63C275.931 1129.44 236.48 1133.77 173.664 1140.47H173.67Z" fill="black"/>
<path d="M26.1173 1156.11L25.8193 1153.26C62.032 1149.44 101.304 1145.29 136.332 1141.57L136.636 1144.42C101.609 1148.14 62.33 1152.29 26.1173 1156.11Z" fill="black"/>
<path d="M-5.45792 1156.55L-13.0784 1157.35L-12.7793 1160.2L-5.15887 1159.39L-5.45792 1156.55Z" fill="black"/>
<path d="M-37.033 1159.87L-83.5486 1164.74L-83.251 1167.58L-36.7355 1162.71L-37.033 1159.87Z" fill="black"/>
<path d="M-137.832 1170.41L-168.581 1173.62L-168.284 1176.47L-137.535 1173.27L-137.832 1170.41Z" fill="black"/>
<path d="M-168.317 1168.18L-168.628 1165.33H-168.582C-161.377 1164.52 313.097 1111.57 344.098 1107.87C361.939 1105.73 418.669 1097 468.723 1089.29C506.929 1083.41 543.023 1077.85 557.182 1075.94C579.792 1068.61 685.416 1048.04 742.206 1036.97C758.941 1033.71 772.173 1031.14 778.021 1029.93C865.48 1000.62 955.76 971.016 1023.73 952.945C1147.74 870.662 1256.72 801.384 1356.87 741.168L1915.83 -18.9924L1918.14 -17.2955L1358.84 743.322L1358.6 743.468C1258.36 803.731 1149.27 873.068 1025.12 955.451L1024.92 955.584L1024.7 955.643C956.76 973.694 866.394 1003.32 778.856 1032.66L778.69 1032.7C772.862 1033.91 759.577 1036.5 742.755 1039.78C685.92 1050.85 580.123 1071.46 557.943 1078.69L557.692 1078.75C544.221 1080.57 510.346 1085.77 473.776 1091.4L556.447 1079.9L773.451 1040.21L1037.87 965.593C1043.3 962.677 1196.39 880.439 1300.36 819.587L1301.81 822.059C1196.43 883.734 1040.64 967.356 1039.08 968.192L1038.79 968.311L774.094 1043L556.897 1082.73L344.621 1112.26L-168.317 1168.16V1168.18Z" fill="black"/>
<path d="M1387.74 768.18L1386.02 765.887C1386.75 765.343 1387.44 764.806 1388.11 764.296C1443.68 721.195 2064.51 -0.730057 2070.78 -8.01514L2072.95 -6.1458C2066.68 1.1459 1445.66 723.29 1389.87 766.563C1389.19 767.086 1388.48 767.63 1387.74 768.187L1387.74 768.18Z" fill="black"/>
<path d="M1831.41 763.606L1831.04 763.593L1404.84 748.725L1450.08 700.785L1936.9 710.927L1831.41 763.6V763.606ZM1411.27 746.08L1830.77 760.716L1925.22 713.552L1451.28 703.675L1411.27 746.073V746.08Z" fill="black"/>
<path d="M1946.42 691.226H1458.86L1510.31 634.338H2057.13L1946.42 691.226H1946.42ZM1465.32 688.356H1945.73L2045.29 637.201H1511.59L1465.33 688.356H1465.32Z" fill="black"/>
<path d="M2068.46 625.926H1517.85L1582.33 553.426H1582.98L2195.74 557.324L2068.46 625.926ZM1524.24 623.062H2067.74L2184.51 560.128L1583.61 556.31L1524.24 623.062Z" fill="black"/>
<path d="M2207.39 545.724H2207L1596.32 537.617L1673.22 450.189H2374.81L2207.39 545.73V545.724ZM1602.59 534.832L2206.65 542.853L2364.01 453.059H1674.52L1602.59 534.832Z" fill="black"/>
<path d="M2395.11 427.094H1693.46L1802.72 301.836H1803.38L2616.28 309.313L2395.1 427.094H2395.11ZM1699.76 424.224H2394.39L2604.99 312.077L1804.02 304.713L1699.76 424.224Z" fill="black"/>
<path d="M2645.75 275.486H2645.36L1833.54 266.392L1978.53 98.9741L1979.22 99.0006L2885.03 137.627L2645.74 275.486H2645.75ZM1839.75 263.594L2645 272.609L2875.05 140.073L1979.79 101.897L1839.75 263.594Z" fill="black"/>
<path d="M-133.29 1088.74L-115.124 1085.31H-115.118L-86.3884 1131.81L-86.4613 1131.82L-73.4212 1077.43L-73.408 1077.39H-73.3616L-47.871 1072.57L-47.8181 1072.56L-47.7849 1072.6L-15.612 1122.99L-15.8174 1123.01L6.18311 1062.38L6.20961 1062.3L6.2957 1062.29L32.336 1057.37L32.4486 1057.35L32.5082 1057.45L65.8864 1112.52L65.5287 1112.55L89.3902 1046.65L89.4366 1046.52L89.569 1046.5L119.205 1040.89L119.384 1040.86L119.47 1041.02L152.319 1099.28L151.789 1099.34L171.041 1031.22L171.094 1031.02L171.293 1030.99L200.889 1025.66L201.128 1025.61L201.247 1025.82L235.387 1087.48L234.691 1087.56L255.42 1015.16L255.493 1014.91L255.745 1014.86L282.778 1009.71L283.116 1009.65L283.255 1009.96L314.415 1079.32L313.514 1079.41L331.66 1000.41L331.733 1000.1L332.044 1000.02L356.972 993.885L357.389 993.786L357.581 994.17L390.522 1061.57L389.45 1061.7L407.053 980.767L407.417 980.667L436.762 972.779L437.259 972.646L437.49 973.11L472.292 1042.5L471.041 1042.62L495.2 956.75L495.306 956.366L495.69 956.253L524.221 948.047L524.784 947.888L525.062 948.405L569.791 1031.15L568.374 1031.44L577.877 930.096L577.924 929.612L618.223 913.577L618.898 913.305L660.555 995.217L658.992 995.503L669.76 893.975L669.813 893.452L670.303 893.26L723.602 872.538L724.397 872.233L763.742 965.162L762.027 965.301L791.683 841.283L791.776 840.892L842.075 811.473L842.929 810.969L895.659 907.889L893.798 908.241L911.58 765.257L911.984 764.992L959.455 734.128L959.906 735.387L1000.72 850.477L998.602 850.749L1011.92 698.584L1011.95 698.2L1012.21 697.915L1067.42 637.161L1068.6 635.869L1127.15 761.008L1124.86 761.432L1139.7 550.37L1139.72 549.979L1139.97 549.674L1195.17 481.895L1266.48 662.079L1264.06 662.391L1303.75 338.878L1303.79 338.573L1303.97 338.314L1322.48 310.871L1322.4 310.997L1356 246.87L1409.33 435.725L1406.74 436.023L1421.17 115.294L1421.19 115.016L1421.31 114.764L1475.84 3.24054L1551.19 147.484L1548.59 148.12L1548.57 -101.21L1548.74 -101.521L1591.4 -180L1617.61 194.674L1617.64 195.112L1617.42 195.49L1567.3 280.398L1465.29 134.823L1467.82 134.06L1459.35 461.584V461.942L1459.15 462.247L1401.17 558.047L1344.07 380.334L1346.66 380.016L1326.57 671.771L1257.78 726.452L1179.7 568.527L1182.12 568.063L1163.82 798.925L1163.77 799.482L1163.33 799.82L1110.71 840.163L1050.11 705.445L1052.45 704.988L1045.73 888.334L1045.71 888.938L1012.48 911.993L1012.35 912.085L1012.2 912.138L983.807 922.234L983.423 921.087L939.369 790.712L941.594 790.48L923.613 943.354L923.534 944.023L922.905 944.262L872.851 963.054L871.904 963.412L824.777 859.472L826.75 859.287L793.564 994.833L793.452 995.303L793.015 995.509L777.551 1002.75L777.445 1002.8L777.332 1002.83L740.59 1010.56L739.762 1010.73L739.457 1009.94L701.761 911.993L703.609 911.774L689.284 1022L689.198 1022.65L688.555 1022.79L644.713 1032.12L644.409 1031.46L603.335 941.464L605.01 941.232L589.076 1045.05L588.997 1045.58L588.48 1045.73L559.917 1054.33L559.268 1054.53L558.937 1053.94L512.499 969.677L513.995 969.484L489.28 1064.86L488.789 1064.95L461.127 1070L460.557 1070.1L460.299 1069.59L422.199 994.767L423.596 994.574L406.238 1078.95L405.755 1079.04L377.853 1083.82L377.304 1083.91L377.085 1083.39L347.402 1014.42L348.674 1014.3L331.217 1091.16L331.117 1091.59L330.687 1091.65L299.885 1095.78L299.421 1095.84L299.242 1095.41L270.063 1026.52L271.142 1026.43L252.639 1101.57L252.553 1101.93L252.188 1101.97L225.751 1105.06L225.42 1105.1L225.247 1104.82L187.816 1042.02L188.684 1041.91L168.107 1112.25L168.028 1112.53L167.743 1112.56L141.438 1115.81L141.16 1115.84L141.02 1115.6L106 1053.56L106.689 1053.51L79.4297 1123.24L79.3569 1123.43L79.1582 1123.46L53.0517 1126.8L52.8398 1126.83L52.7271 1126.65L19.7397 1073.5L20.2695 1073.42L2.42807 1132.77L2.38171 1132.93L2.20952 1132.95L-30.5528 1137.01L-30.7183 1137.03L-30.7978 1136.88L-57.6527 1087.77L-57.2619 1087.72L-72.1563 1142.01L-72.1894 1142.13L-72.3086 1142.15L-96.7197 1145.17L-96.8323 1145.18L-96.8853 1145.08L-122.356 1100.18L-122.098 1100.15L-137.807 1150.16L-137.827 1150.23H-137.899L-167.026 1153.85H-167.105L-167.132 1153.79L-187.377 1099.59L-187.404 1099.52L-187.331 1099.51L-172.47 1096.39H-172.423L-172.403 1096.42L-152.873 1142.97H-152.933L-133.29 1088.73V1088.74ZM-133.29 1088.74L-152.88 1143L-152.906 1143.07L-152.939 1143L-172.523 1096.47L-172.456 1096.5L-187.318 1099.64L-187.271 1099.56L-166.973 1153.73L-167.079 1153.67L-137.959 1150.03L-138.052 1150.11L-122.396 1100.09L-122.296 1099.77L-122.138 1100.06L-96.6204 1144.93L-96.786 1144.84L-72.3815 1141.79L-72.5338 1141.93L-57.56 1087.11L-57.3083 1087.58L-30.4005 1136.66L-30.6455 1136.54L2.11682 1132.44L1.89825 1132.63L19.6735 1073.27L19.8589 1072.64L20.2033 1073.2L53.2504 1126.32L52.9325 1126.16L79.039 1122.8L78.7608 1123.01L106.238 1052.5L141.722 1115.2L141.305 1114.99L167.61 1111.71L167.246 1112.02L188.048 1040.61L188.611 1041.55L226.115 1104.3L225.612 1104.06L252.049 1100.93L251.599 1101.33L270.427 1024.5L300.348 1094.93L299.706 1094.57L330.508 1090.41L329.978 1090.89L347.356 1014.01L347.813 1012L378.39 1082.83L377.615 1082.41L405.51 1077.61L404.927 1078.18L422.57 992.181L423.536 994.084L461.683 1068.89L460.855 1068.48L488.511 1063.42L487.895 1064L512.936 967.118L513.922 968.901L560.413 1053.13L559.433 1052.74L587.997 1044.12L587.401 1044.8L603.719 938.064L646.078 1030.72L645.058 1030.21L688.178 1021L687.456 1021.79L702.198 907.803L741.311 1009.25L740.186 1008.63L776.928 1000.89L776.71 1000.96L792.167 993.706L791.617 994.382L825.439 855.866L873.467 961.622L872.096 961.052L922.136 942.233L921.428 943.135L939.905 785.196L985.674 920.371L984.151 919.629L1011.4 909.924L1011.12 910.07L1043.83 887.34L1043.32 888.288L1050.19 699.698L1112.33 837.756L1110.45 837.279L1161.81 797.884L1161.33 798.779L1179.94 563.323L1259.39 723.933L1257.43 723.495L1324.51 670.153L1324.02 671.081L1344.48 372.996L1402.83 554.467L1400.4 554.182L1456.82 460.894L1456.62 461.564L1465.13 129.825L1568.34 277.031L1565.97 277.124L1614.96 194.091L1614.77 194.913L1588.92 -174.942L1591.57 -174.366L1551.2 -100.149L1551.37 -100.819L1551.34 153.768L1474.66 6.91953L1477.1 6.88638L1423.73 115.977L1423.87 115.447L1409.01 444.329L1354.39 250.748L1356.79 250.999L1324.7 312.23L1324.67 312.296L1324.63 312.356L1306.11 339.799L1306.32 339.236L1265.96 667.634L1193.65 484.818L1195.75 485.143L1141.87 551.279L1142.14 550.589L1126.94 766.278L1067.23 638.474L1069.15 638.766L1013.9 699.486L1014.19 698.816L1000.34 855.979L957.919 736.123L959.488 736.654L913.116 766.762L913.58 766.019L895.388 911.595L841.718 812.792L843.049 813.163L793.081 842.343L793.524 841.747L763.146 968.43L723.112 873.718L724.238 874.195L670.926 894.884L671.469 894.174L660.343 998.479L617.805 914.704L618.812 915.088L578.957 930.924L579.454 930.268L569.891 1031.6L569.659 1034.09L523.797 949.127L524.638 949.479L496.107 957.665L496.604 957.168L472.359 1043.01L471.882 1044.69L471.1 1043.13L436.378 973.7L437.106 974.032L407.755 981.887L408.198 981.423L390.238 1063.59L356.648 994.667L357.25 994.952L332.316 1001.06L332.7 1000.67L314.157 1081.03L313.58 1079.73L282.494 1010.34L282.97 1010.59L255.93 1015.71L256.255 1015.41L235.446 1087.79L235.195 1088.67L200.677 1026.17L201.035 1026.34L171.432 1031.64L171.69 1031.41L152.365 1099.51L152.173 1100.18L151.835 1099.57L119.053 1041.27L119.318 1041.4L89.675 1046.98L89.8538 1046.83L65.9195 1112.71L65.7804 1113.1L65.5685 1112.75L32.2499 1057.64L32.4221 1057.71L6.37518 1062.61L6.48776 1062.51L-15.6584 1123.34L-15.7842 1123.14L-47.9041 1072.71L-47.8181 1072.75L-73.3153 1077.54L-73.2623 1077.49L-86.3619 1131.86L-86.3818 1131.96L-86.4281 1131.88L-115.104 1085.34H-115.091L-133.257 1088.76L-133.29 1088.74Z" fill="black"/>
<path d="M1647.75 138.953L1624.97 -173.61H1590.33V-176.473H1627.63L1627.72 -175.148L1650.6 138.747L1647.75 138.953Z" fill="black"/>
<path d="M1485.47 163.423L1480.85 420.733L1483.71 420.784L1488.34 163.475L1485.47 163.423Z" fill="black"/>
<path d="M1410.14 369.337L1377.32 255.613L1355.4 251.808L1355.89 248.984L1379.58 253.094L1412.89 368.542L1410.14 369.337Z" fill="black"/>
<path d="M1269.29 619.854L1217.64 485.792H1194.8V482.922H1219.61L1271.96 618.826L1269.29 619.854Z" fill="black"/>
<path d="M1352.93 407.765L1349.47 635.777L1352.34 635.82L1355.8 407.809L1352.93 407.765Z" fill="black"/>
<path d="M1189.7 588.849L1187.12 778.667L1189.98 778.707L1192.57 588.888L1189.7 588.849Z" fill="black"/>
<path d="M1061.44 724.49H1058.58V876.886H1061.44V724.49Z" fill="black"/>
<path d="M1127.39 725.12L1085.99 639.84L1068.25 639.415L1068.32 636.545L1087.8 637.016L1129.96 723.867L1127.39 725.12Z" fill="black"/>
<path d="M1000.79 823.716L966.866 737.204H958.912V734.34H968.82L1003.46 822.669L1000.79 823.716Z" fill="black"/>
<path d="M895.818 890.688L854.506 813.767H842.565V810.903H856.221L898.341 889.329L895.818 890.688Z" fill="black"/>
<path d="M946.831 813.345L934.468 938.204L937.321 938.487L949.684 813.628L946.831 813.345Z" fill="black"/>
<path d="M829.408 869.898L804.063 988.639L806.867 989.238L832.213 870.498L829.408 869.898Z" fill="black"/>
<path d="M765.604 949.399L729.987 869.409L731.431 868.885C746.55 863.39 786.637 848.488 790.491 845.598L792.207 847.892C787.597 851.345 743.716 867.453 733.848 871.053L768.213 948.232L765.597 949.399H765.604Z" fill="black"/>
<path d="M910.38 776.042L854.609 811.033L856.131 813.465L911.903 778.474L910.38 776.042Z" fill="black"/>
<path d="M1011.39 708.14L967.119 734.501L968.585 736.968L1012.85 710.606L1011.39 708.14Z" fill="black"/>
<path d="M1138 576.238L1085.84 637.601L1088.03 639.461L1140.18 578.097L1138 576.238Z" fill="black"/>
<path d="M1299.21 375.865L1217.43 483.395L1219.71 485.134L1301.49 377.603L1299.21 375.865Z" fill="black"/>
<path d="M1418.7 171.019L1377.17 253.709L1379.73 254.998L1421.26 172.308L1418.7 171.019Z" fill="black"/>
<path d="M1518.58 -16.0884L1489.49 34.1604L1491.97 35.5994L1521.06 -14.6493L1518.58 -16.0884Z" fill="black"/>
<path d="M1304.87 252.905L1161.55 260.272L1161.7 263.138L1305.01 255.771L1304.87 252.905Z" fill="black"/>
<path d="M914.576 672.163L914.509 675.033L996.726 676.958L996.793 674.088L914.576 672.163Z" fill="black"/>
<path d="M633.481 882.707L583.334 887.611L583.613 890.468L633.759 885.564L633.481 882.707Z" fill="black"/>
<path d="M453.557 1291.74H370.681L370.847 1290.15C370.946 1289.24 379.979 1197.86 337.74 1151.91L337.363 1151.5V1113.49H365.502L365.86 1113.72C366.058 1113.85 385.741 1126.74 393.205 1128.23C400.814 1129.76 417.94 1130.39 425.662 1129.78C431.775 1129.29 452.319 1116.44 459.716 1111.53L460.074 1111.29H480.611L490.101 1116.92V1150.56L489.71 1150.98C489.306 1151.41 449.193 1195.28 453.491 1290.24L453.557 1291.74ZM450.557 1288.87C446.895 1198.68 483.041 1154.28 487.227 1149.46V1118.56L479.816 1114.17H460.928C457.544 1116.39 433.563 1132.02 425.881 1132.64C417.914 1133.28 400.662 1132.66 392.635 1131.05C385.125 1129.54 367.476 1118.2 364.641 1116.36H340.217V1150.38C379.814 1194.02 374.834 1276.43 373.827 1288.87H450.557Z" fill="black"/>
<path d="M372.271 1291.74H362.628L362.787 1290.16C371.304 1205.3 328.813 1153.47 328.382 1152.96L328.044 1152.56V1120.51L337.978 1113.74L339.588 1116.11L330.905 1122.03V1151.53C334.932 1156.63 373.37 1207.71 365.78 1288.87H372.257V1291.74H372.271Z" fill="black"/>
<path d="M242.473 1285.73H172.326L172.452 1284.55C172.531 1283.76 180.22 1206.02 144.266 1166.9L143.981 1166.6V1134.48H167.723L167.995 1134.66C168.16 1134.77 184.922 1145.74 191.287 1147.02C197.764 1148.32 212.347 1148.86 218.923 1148.33C224.148 1147.91 241.639 1136.97 247.943 1132.8L248.215 1132.62H265.593L273.553 1137.34V1165.8L273.262 1166.12C272.917 1166.49 238.771 1203.81 242.433 1284.61L242.486 1285.74L242.473 1285.73ZM174.69 1283.58H240.228C237.056 1206.58 268.03 1168.83 271.401 1164.97V1138.57L264.997 1134.77H248.857C246.129 1136.56 225.618 1149.95 219.095 1150.47C212.327 1151.01 197.677 1150.48 190.869 1149.12C184.478 1147.84 169.372 1138.11 167.087 1136.62H146.14V1165.75C179.982 1202.98 175.525 1273.56 174.703 1283.57L174.69 1283.58Z" fill="black"/>
<path d="M173.518 1285.73H165.478L165.597 1284.55C172.842 1212.34 136.683 1168.24 136.319 1167.8L136.067 1167.5V1140.38L144.451 1134.67L145.663 1136.44L138.219 1141.52V1166.72C141.458 1170.81 174.386 1214.31 167.856 1283.58H173.518V1285.73Z" fill="black"/>
<path d="M84.5161 1278.39H24.7797L24.9055 1277.2C24.9718 1276.54 31.4752 1210.8 1.09045 1177.74L0.805664 1177.44V1150.02H21.1174L21.3889 1150.2C21.528 1150.29 35.6872 1159.57 41.0516 1160.64C46.5285 1161.73 58.8467 1162.2 64.3965 1161.75C68.7873 1161.4 83.5624 1152.15 88.8804 1148.62L89.1519 1148.44H103.954L110.815 1152.51V1176.77L110.523 1177.08C110.232 1177.39 81.377 1208.95 84.4697 1277.27L84.5227 1278.39L84.5161 1278.39ZM82.271 1276.24C79.6484 1211.43 105.596 1179.47 108.662 1175.93V1153.74L103.364 1150.6H89.7943C87.3175 1152.23 70.0919 1163.45 64.562 1163.89C58.8268 1164.35 46.4027 1163.91 40.6211 1162.75C35.217 1161.67 22.5479 1153.53 20.4683 1152.17H2.94479V1176.6C31.3891 1207.97 27.8725 1267.13 27.1374 1276.24H82.271Z" fill="black"/>
<path d="M25.9717 1278.39H18.9848L19.104 1277.21C25.23 1216.16 -5.33356 1178.86 -5.64482 1178.5L-5.89648 1178.2V1155.1L1.26924 1150.21L2.48117 1151.99L-3.75075 1156.23V1177.43C-0.797043 1181.17 26.7929 1217.91 21.3557 1276.25H25.9717V1278.39V1278.39Z" fill="black"/>
<path d="M-33.8905 1276.41H-89.1168L-88.991 1275.23C-88.9248 1274.62 -82.9445 1214.08 -110.912 1183.66L-111.197 1183.35V1157.97H-92.3752L-92.1037 1158.15C-91.9712 1158.23 -78.9378 1166.76 -74.0172 1167.75C-68.9773 1168.76 -57.6393 1169.18 -52.5266 1168.77C-48.5001 1168.46 -34.9037 1159.95 -30.003 1156.7L-29.7314 1156.52H-16.0424L-9.65817 1160.3V1182.73L-9.94957 1183.05C-10.2211 1183.33 -36.7846 1212.39 -33.9368 1275.3L-33.8839 1276.43L-33.8905 1276.41ZM-86.7525 1274.26H-36.1356C-38.5197 1214.73 -14.7444 1185.29 -11.8172 1181.9V1161.53L-16.6385 1158.66H-29.0891C-31.8904 1160.51 -47.2484 1170.5 -52.3544 1170.91C-57.6393 1171.34 -69.1031 1170.92 -74.4344 1169.86C-79.408 1168.87 -91.0308 1161.41 -93.011 1160.12H-109.044V1182.51C-82.9313 1211.34 -86.0572 1265.57 -86.7459 1274.27L-86.7525 1274.26Z" fill="black"/>
<path d="M-87.9248 1276.41H-94.4547L-94.3355 1275.23C-88.693 1219.02 -116.833 1184.68 -117.117 1184.34L-117.369 1184.05V1162.68L-110.727 1158.15L-109.515 1159.93L-115.217 1163.81V1183.27C-112.396 1186.85 -87.1168 1220.66 -92.0772 1274.26H-87.9182V1276.41L-87.9248 1276.41Z" fill="black"/>
<path d="M-128.515 1274.51H-179.642L-179.516 1273.32C-179.457 1272.77 -173.94 1216.95 -199.715 1188.91L-200 1188.61V1165.08H-182.529L-182.258 1165.26C-182.139 1165.34 -170.125 1173.2 -165.602 1174.11C-160.966 1175.04 -150.516 1175.43 -145.8 1175.05C-142.105 1174.75 -129.575 1166.92 -125.065 1163.92L-124.793 1163.74H-116.766V1165.89H-124.151C-126.793 1167.63 -140.913 1176.81 -145.635 1177.19C-150.529 1177.58 -161.105 1177.2 -166.026 1176.22C-170.615 1175.3 -181.284 1168.46 -183.172 1167.24H-197.854V1187.77C-173.854 1214.29 -176.629 1264.05 -177.278 1272.37H-130.767C-132.561 1227.1 -118.018 1200.8 -111.64 1191.54L-109.872 1192.76C-116.177 1201.92 -130.628 1228.09 -128.575 1273.4L-128.522 1274.52L-128.515 1274.51Z" fill="black"/>
<path d="M461.498 1113.22L461.961 1104.98L481.346 1102.76V1113.22H461.498ZM478.471 1110.36V1105.98L464.676 1107.56L464.518 1110.36H478.471Z" fill="black"/>
<path d="M1470.75 1449.99L1470.85 1447.73C1483.06 1176.23 1382.46 1014.55 1339.5 945.515C1329.55 929.519 1322.97 918.953 1321.21 912.556L1321.13 912.278V781.683L1476.59 783.234L1477.04 783.473C1477.85 783.897 1558.22 825.798 1583.91 827.628C1614.6 829.808 1679.33 829.974 1706.03 827.164C1735.37 824.074 1779.81 777.487 1780.25 777.016L1780.86 776.38L1781.73 776.347L1954.4 770.122C1955.66 770.096 1956.77 770.52 1957.66 771.349C1958.54 772.184 1959.05 773.311 1959.07 774.531L1961.68 899.08C1961.79 903.806 1960.34 908.532 1957.6 912.37L1956.18 914.366C1849.65 1063.36 1796.56 1252.05 1806.68 1445.71L1806.8 1447.95L1470.75 1449.99V1449.99ZM1325.43 911.688C1327.16 917.547 1333.89 928.359 1343.15 943.241C1386.2 1012.43 1486.86 1174.18 1475.24 1445.67L1802.27 1443.69C1795.95 1316.92 1815.59 1194.94 1860.67 1081.06C1896.56 990.365 1938.8 931.282 1952.68 911.873L1954.11 909.878C1956.3 906.789 1957.47 902.991 1957.38 899.186L1954.77 774.63C1954.77 774.577 1954.75 774.524 1954.71 774.484C1954.67 774.444 1954.61 774.431 1954.56 774.425L1782.76 780.616C1777.02 786.562 1735.8 828.363 1706.47 831.446C1679.57 834.276 1614.44 834.111 1583.6 831.923C1557.77 830.087 1482.78 791.315 1475.51 787.53L1325.42 786.032V911.688H1325.43Z" fill="black"/>
<path d="M1449.94 1449.98L1450.21 1447.58C1471.02 1267.78 1412.37 1110.71 1359.52 1010.61L1363.32 1008.6C1416.23 1108.8 1474.9 1265.78 1454.76 1445.68H1473V1449.98H1449.94Z" fill="black"/>
<path d="M1359.52 1010.62C1328.34 951.567 1301.06 916.48 1300.79 916.135L1300.33 915.552V796.856L1322.08 782.081L1324.49 785.641L1304.63 799.137V914.08C1308.35 918.953 1334.18 953.416 1363.32 1008.61L1359.52 1010.62Z" fill="black"/>
<path d="M1360.5 1000.95L1361.41 1042.84C1361.47 1045.35 1360.72 1047.86 1359.28 1049.89L1358.5 1051C1300.26 1133.48 1271.24 1237.94 1276.77 1345.14L1276.81 1345.87H1276.09L1094.33 1346.99L1094.36 1346.25C1101.03 1195.96 1046.04 1106.46 1022.56 1068.25C1017.15 1059.44 1013.58 1053.62 1012.64 1050.15L1012.61 1049.96V978.407L1096.9 979.262L1097.04 979.341C1097.48 979.573 1141.46 1002.79 1155.59 1003.82C1172.35 1005.02 1207.75 1005.11 1222.35 1003.56C1238.58 1001.83 1262.98 979.394 1263.22 979.169L1263.41 978.997H1263.66L1341.9 976.133M1342.97 977.485L1263.96 980.369C1261.47 982.642 1238.59 1003.22 1222.49 1004.94C1207.82 1006.51 1172.3 1006.41 1155.49 1005.2C1141.35 1004.19 1099.84 982.391 1096.54 980.654L1013.99 979.819V1049.87C1014.92 1053.17 1018.62 1059.19 1023.73 1067.51C1047.25 1105.77 1102.25 1195.31 1095.78 1345.58L1275.36 1344.48C1271.84 1274.27 1282.55 1206.7 1307.19 1143.65C1326.77 1093.55 1349.81 1060.92 1357.38 1050.19L1358.16 1049.09C1359.42 1047.29 1360.09 1045.09 1360.03 1042.88L1359.2 1004.38M1359.19 1004.37L1359.07 998.744L1359.19 1004.37Z" fill="black"/>
<path d="M1093.57 1347.71L1093.64 1346.22C1100.31 1196.14 1045.39 1106.78 1021.95 1068.62C1016.5 1059.75 1012.91 1053.9 1011.93 1050.34L1011.89 1050.06V977.677L1097.06 978.539L1097.37 978.698C1099.18 979.653 1141.86 1002.1 1155.63 1003.09C1172.36 1004.29 1207.69 1004.39 1222.27 1002.83C1238.2 1001.14 1262.48 978.857 1262.73 978.632L1263.1 978.281L1263.62 978.261L1341.87 975.404L1341.92 976.803L1342.95 976.763L1343 978.195L1264.24 981.072C1260.88 984.127 1238.51 1003.95 1222.57 1005.65C1207.86 1007.22 1172.27 1007.13 1155.43 1005.92C1141.4 1004.91 1101.61 984.134 1096.36 981.37L1014.7 980.541V1049.77C1015.66 1052.99 1019.3 1058.93 1024.34 1067.13C1047.83 1105.36 1102.8 1194.79 1096.52 1344.85L1274.61 1343.76C1271.19 1273.71 1281.93 1206.3 1306.52 1143.38C1326.13 1093.2 1349.21 1060.51 1356.8 1049.77L1357.58 1048.67C1358.76 1047 1359.37 1044.95 1359.32 1042.89L1358.49 1004.39L1358.37 998.757L1359.8 998.724L1359.85 1000.96L1361.23 1000.94L1362.14 1042.83C1362.2 1045.49 1361.4 1048.15 1359.87 1050.31L1359.09 1051.42C1300.95 1133.77 1271.97 1238.07 1277.5 1345.11L1277.57 1346.58L1276.1 1346.6L1093.58 1347.71H1093.57ZM1350.81 1060.98C1340.31 1076.71 1323.04 1105.04 1307.85 1143.9C1288.03 1194.63 1277.24 1248.29 1275.63 1303.9C1278.35 1215.67 1304.44 1131.02 1350.81 1060.98ZM1256.28 985.977C1250.08 990.935 1240.87 997.624 1232.17 1001.42C1240.93 997.644 1250.1 990.955 1256.28 985.977Z" fill="black"/>
<path d="M1095.04 1346.98H1082.99L1083.07 1346.2C1092.76 1261.38 1070.04 1185.91 1049.27 1137.53C1026.76 1085.08 1001.63 1052.28 1001.38 1051.95L1001.23 1051.76V986.554L1012.89 978.533L1013.67 979.693L1002.61 987.303V1051.29C1004.71 1054.07 1028.83 1086.43 1050.52 1136.94C1063.78 1167.83 1073.56 1199.37 1079.58 1230.69C1087.05 1269.58 1088.72 1308.24 1084.53 1345.59H1095.03V1346.99L1095.04 1346.98Z" fill="black"/>
<path d="M1095.76 1347.7H1082.19L1082.37 1346.12C1092.03 1261.46 1069.35 1186.11 1048.62 1137.81C1026.13 1085.41 1001.07 1052.72 1000.81 1052.4L1000.52 1052.01V986.182L1013.09 977.538L1014.66 979.885L1003.33 987.68V1051.05C1006.6 1055.39 1029.93 1087.17 1051.18 1136.65C1064.46 1167.59 1074.25 1199.19 1080.29 1230.55C1087.72 1269.23 1089.42 1307.69 1085.34 1344.87H1095.76V1347.71V1347.7ZM1066.85 1183.07C1075.61 1211.28 1082.82 1244.1 1085.23 1279.84C1084.15 1263.59 1082.03 1247.23 1078.88 1230.82C1075.83 1214.92 1071.8 1198.97 1066.84 1183.07H1066.85Z" fill="black"/>
<path d="M1013.46 1068.58L1013.98 1093.3C1014.02 1095.14 1013.48 1096.98 1012.47 1098.49L1011.92 1099.3C970.773 1159.95 950.263 1236.75 954.17 1315.57L954.197 1316.11H953.687L825.24 1316.93L825.26 1316.38C829.976 1205.88 791.121 1140.08 774.524 1111.98C770.696 1105.5 768.173 1101.23 767.504 1098.67L767.484 1098.53V1045.92L827.042 1046.55L827.148 1046.61C827.459 1046.78 858.533 1063.86 868.52 1064.6C880.367 1065.49 905.375 1065.56 915.699 1064.41C927.163 1063.14 944.409 1046.64 944.581 1046.48L944.713 1046.35H944.892L1000.54 1044.23M1012.44 1066.15L1012.4 1064.66L1012.44 1066.15ZM1001.24 1044.93L945.111 1047.37C943.349 1049.04 927.183 1064.17 915.805 1065.43C905.434 1066.58 880.341 1066.51 868.453 1065.62C858.46 1064.87 829.128 1048.85 826.803 1047.57L768.464 1046.96V1098.46C769.127 1100.88 771.743 1105.32 775.352 1111.43C791.968 1139.56 830.837 1205.39 826.26 1315.88L953.17 1315.07C950.68 1263.45 958.25 1213.77 975.661 1167.41C989.496 1130.57 1005.78 1106.58 1011.13 1098.69L1011.67 1097.88C1012.57 1096.57 1013.04 1094.94 1013 1093.32L1012.43 1066.14" fill="black"/>
<path d="M824.492 1317.64L824.545 1316.35C829.254 1206.06 790.472 1140.38 773.908 1112.34C770.054 1105.81 767.504 1101.5 766.815 1098.85L766.782 1098.63V1045.2L827.24 1045.83L827.4 1045.92C827.817 1046.15 858.771 1063.15 868.586 1063.89C880.401 1064.77 905.342 1064.84 915.633 1063.7C926.799 1062.46 943.925 1046.13 944.097 1045.97L944.428 1045.65L944.879 1045.63L1000.53 1043.51L1000.56 1044.24L1001.22 1044.22L1001.28 1045.65L945.415 1048.07C942.846 1050.49 927.137 1064.9 915.891 1066.15C905.481 1067.3 880.315 1067.23 868.407 1066.34C858.486 1065.6 830.532 1050.43 826.625 1048.29L769.186 1047.68V1098.37C769.862 1100.72 772.431 1105.07 775.975 1111.07C792.571 1139.18 831.393 1204.91 827.009 1315.17L952.422 1314.37C950.038 1262.92 957.627 1213.39 974.992 1167.16C988.853 1130.25 1005.17 1106.2 1010.54 1098.3L1011.09 1097.49C1011.9 1096.29 1012.33 1094.82 1012.3 1093.34L1011.73 1066.17L1011.69 1064.68L1013.13 1064.65L1013.2 1068.59L1014.18 1068.57L1014.69 1093.29C1014.74 1095.29 1014.16 1097.27 1013.07 1098.9L1012.52 1099.71C971.456 1160.23 950.985 1236.88 954.886 1315.54L954.952 1316.83H953.694L824.499 1317.66L824.492 1317.64Z" fill="black"/>
<path d="M825.75 1316.92H817.234L817.293 1316.34C824.141 1253.98 808.081 1198.48 793.405 1162.91C777.498 1124.35 759.736 1100.24 759.564 1100L759.458 1099.86V1051.91L767.703 1046.01L768.253 1046.86L760.438 1052.46V1099.5C761.928 1101.55 778.968 1125.33 794.293 1162.47C803.664 1185.18 810.571 1208.37 814.83 1231.4C820.108 1260 821.287 1288.42 818.333 1315.88H825.757V1316.91L825.75 1316.92Z" fill="black"/>
<path d="M826.466 1317.64H816.432L816.585 1316.26C823.413 1254.05 807.392 1198.68 792.75 1163.19C776.769 1124.45 759.166 1100.66 758.994 1100.42L758.749 1100.09V1051.54L767.901 1044.99L769.226 1047.05L761.153 1052.83V1099.28C763.584 1102.64 779.995 1125.94 794.955 1162.2C804.346 1184.96 811.267 1208.2 815.532 1231.28C820.777 1259.67 821.982 1287.89 819.128 1315.18H826.466V1317.64V1317.64Z" fill="black"/>
<path d="M592.666 1300.95L592.686 1300.51C596.309 1211.87 566.473 1159.09 553.738 1136.55C550.804 1131.35 548.864 1127.93 548.354 1125.88L548.341 1125.77V1083.56L594.063 1084.06L594.143 1084.11C594.381 1084.25 618.236 1097.94 625.905 1098.54C635.005 1099.25 654.204 1099.3 662.125 1098.39C670.926 1097.37 684.165 1084.14 684.297 1084L684.397 1083.9H684.536L735.689 1081.87C735.98 1081.86 736.252 1081.97 736.464 1082.19C736.676 1082.41 736.795 1082.7 736.802 1083.02L737.57 1121.56C737.603 1123.04 737.192 1124.52 736.411 1125.73L735.987 1126.38C704.397 1175.02 688.648 1236.63 691.648 1299.85L691.668 1300.28H691.277L592.673 1300.94L592.666 1300.95ZM549.082 1125.71C549.586 1127.65 551.599 1131.21 554.367 1136.11C567.122 1158.68 596.964 1211.48 593.448 1300.12L690.873 1299.47C688.959 1258.06 694.774 1218.2 708.139 1181.02C718.761 1151.47 731.258 1132.22 735.365 1125.9L735.788 1125.25C736.47 1124.19 736.835 1122.89 736.808 1121.58L736.04 1083.04C736.04 1082.94 736 1082.86 735.941 1082.79C735.874 1082.72 735.782 1082.69 735.709 1082.69L684.695 1084.71C683.344 1086.06 670.926 1098.2 662.197 1099.2C654.237 1100.13 634.972 1100.07 625.846 1099.36C618.177 1098.75 595.653 1085.9 593.871 1084.88L549.082 1084.39V1125.71Z" fill="black"/>
<path d="M591.918 1301.67L591.964 1300.49C595.58 1212.05 565.818 1159.39 553.109 1136.91C550.142 1131.67 548.188 1128.2 547.652 1126.06L547.619 1125.86V1082.84L594.249 1083.36L594.414 1083.45C594.732 1083.64 618.481 1097.25 625.951 1097.84C635.018 1098.55 654.144 1098.61 662.038 1097.69C670.595 1096.7 683.655 1083.64 683.787 1083.51L684.085 1083.21L684.363 1083.2L735.656 1081.16C736.159 1081.13 736.616 1081.33 736.974 1081.7C737.305 1082.05 737.497 1082.52 737.51 1083.02L738.278 1121.56C738.312 1123.18 737.861 1124.8 737.007 1126.12L736.583 1126.77C705.072 1175.3 689.37 1236.75 692.363 1299.83L692.417 1301H691.277L591.918 1301.67V1301.67ZM549.798 1125.62C550.321 1127.5 552.387 1131.15 554.99 1135.76C567.732 1158.31 597.52 1211.01 594.196 1299.39L690.132 1298.76C688.317 1257.52 694.152 1217.83 707.476 1180.78C718.126 1151.15 730.662 1131.85 734.782 1125.51L735.205 1124.86C735.815 1123.92 736.133 1122.76 736.106 1121.6L735.345 1083.43L685.006 1085.42C682.886 1087.51 670.919 1098.92 662.29 1099.92C654.283 1100.85 634.945 1100.79 625.799 1100.07C618.157 1099.48 596.838 1087.4 593.686 1085.59L549.811 1085.11V1125.61L549.798 1125.62Z" fill="black"/>
<path d="M593.057 1300.95H586.52L586.566 1300.49C591.825 1250.47 579.493 1205.95 568.228 1177.41C556.016 1146.48 542.38 1127.13 542.248 1126.95L542.168 1126.83V1088.37L548.493 1083.64L548.917 1084.32L542.917 1088.81V1126.55C544.062 1128.19 557.142 1147.27 568.911 1177.06C576.103 1195.28 581.407 1213.88 584.672 1232.36C588.725 1255.29 589.633 1278.09 587.361 1300.12H593.057V1300.95V1300.95Z" fill="black"/>
<path d="M593.772 1301.67H585.725L585.858 1300.42C591.096 1250.53 578.805 1206.14 567.566 1177.68C555.5 1147.11 542.221 1128.15 541.665 1127.36L541.532 1127.17L541.453 1126.83V1088.01L548.698 1082.6L549.87 1084.51L543.632 1089.17V1126.33C545.579 1129.15 558.135 1147.84 569.573 1176.8C576.785 1195.06 582.103 1213.72 585.374 1232.24C589.388 1254.96 590.321 1277.56 588.149 1299.41H593.772V1301.67V1301.67Z" fill="black"/>
<path d="M1387.13 784.885H1384.27V767.325H1330.81V783.857H1327.95V764.455H1387.13V784.885Z" fill="black"/>
<path d="M1867.18 775.386H1864.31V747.803H1923.5V774.166H1920.63V750.674H1867.18V775.386Z" fill="black"/>
<path d="M1318.3 788.219H1315.44V776.367L1328.43 764.819L1330.33 766.96L1318.3 777.653V788.219Z" fill="black"/>
<path d="M1010.26 1343.72H898.984V1315.1H1010.26V1343.72ZM901.851 1340.86H1007.4V1317.98H901.851V1340.86Z" fill="black"/>
<path d="M902.454 1343.72H776.809V1315.1H902.454V1343.72ZM779.67 1340.86H899.587V1317.98H779.67V1340.86Z" fill="black"/>
<path d="M779.67 1343.72H760.067V1315.1H779.67V1343.72ZM762.928 1340.86H776.802V1317.98H762.928V1340.86Z" fill="black"/>
<path d="M734.205 1320.99H648.475V1298.45H734.205V1320.99ZM651.343 1318.13H731.344V1301.32H651.343V1318.13Z" fill="black"/>
<path d="M651.8 1320.99H555.089V1298.45H651.8V1320.99ZM557.957 1318.13H648.939V1301.32H557.957V1318.13Z" fill="black"/>
<path d="M557.957 1320.99H542.294V1298.45H557.957V1320.99ZM545.162 1318.13H555.089V1301.32H545.162V1318.13Z" fill="black"/>
<path d="M490.094 1308.28H417.583V1288.87H490.094V1308.28ZM420.45 1305.41H487.227V1291.73H420.45V1305.41Z" fill="black"/>
<path d="M420.841 1308.28H339.104V1288.87H420.841V1308.28ZM341.965 1305.41H417.973V1291.73H341.965V1305.41Z" fill="black"/>
<path d="M341.965 1308.28H328.349V1288.87H341.965V1308.28ZM331.217 1305.41H339.104V1291.73H331.217V1305.41Z" fill="black"/>
<path d="M273.547 1300.06H211.055V1283.58H273.547V1300.06ZM213.201 1297.92H271.394V1285.74H213.201V1297.92Z" fill="black"/>
<path d="M213.532 1300.06H143.047V1283.58H213.532V1300.06ZM145.199 1297.92H211.386V1285.74H145.199V1297.92Z" fill="black"/>
<path d="M145.199 1300.06H133.736V1283.58H145.199V1300.06ZM135.881 1297.92H143.047V1285.74H135.881V1297.92Z" fill="black"/>
<path d="M107.603 1289.25H59.7075V1276.24H107.603V1289.25ZM61.8533 1287.1H105.45V1278.39H61.8533V1287.1Z" fill="black"/>
<path d="M61.7474 1288.89H8.50781V1276.6H61.7474V1288.89ZM9.93831 1287.46H60.3169V1278.03H9.93831V1287.46Z" fill="black"/>
<path d="M9.93826 1288.89H1.44141V1276.6H9.93826V1288.89ZM2.87189 1287.46H8.50114V1278.03H2.87189V1287.46Z" fill="black"/>
<path d="M-15.1219 1286.27H-59.54V1274.63H-15.1219V1286.27ZM-58.1095 1284.83H-16.559V1276.05H-58.1095V1284.83Z" fill="black"/>
<path d="M-57.8712 1286.27H-107.985V1274.63H-57.8712V1286.27ZM-106.554 1284.83H-59.3083V1276.05H-106.554V1284.83Z" fill="black"/>
<path d="M-106.554 1286.27H-114.627V1274.63H-106.554V1286.27ZM-113.19 1284.83H-107.985V1276.05H-113.19V1284.83Z" fill="black"/>
<path d="M-119.588 1281.93H-153.76V1272.72H-119.588V1281.93ZM-152.33 1280.5H-121.025V1274.15H-152.33V1280.5Z" fill="black"/>
<path d="M-152.151 1281.93H-190.662V1272.72H-152.151V1281.93ZM-189.225 1280.5H-153.575V1274.15H-189.225V1280.5Z" fill="black"/>
<path d="M1359.16 1390.08H1200.03V1344.15H1359.16V1390.08ZM1202.9 1387.21H1356.29V1347.02H1202.9V1387.21Z" fill="black"/>
<path d="M1203.77 1390.08H1023.93V1344.15H1203.77V1390.08ZM1026.79 1387.21H1200.9V1347.02H1026.79V1387.21Z" fill="black"/>
<path d="M1026.79 1390.08H999.801V1344.15H1026.79V1390.08ZM1002.67 1387.21H1023.93V1347.02H1002.67V1387.21Z" fill="black"/>
<path d="M1895.16 1522.24H1659.89V1446.4H1895.16V1522.24ZM1662.75 1519.37H1892.3V1449.27H1662.75V1519.37Z" fill="black"/>
<path d="M1664.03 1522.24H1397.96V1446.4H1664.03V1522.24ZM1400.83 1519.37H1661.17V1449.27H1400.83V1519.37Z" fill="black"/>
<path d="M1400.83 1522.24H1362.08V1446.4H1400.83V1522.24ZM1364.94 1519.37H1397.96V1449.27H1364.94V1519.37Z" fill="black"/>
<path d="M892.043 662.583H889.176V415.713L948.442 402.309L949.078 405.106L892.043 418.006V662.583Z" fill="black"/>
<path d="M892.004 436.454L889.215 435.791C889.381 435.102 893.474 418.742 914.017 410.118L915.123 412.763C895.984 420.797 892.037 436.302 892.004 436.454Z" fill="black"/>
<path d="M938.62 412.338C937.839 412.338 937.077 412.12 936.395 411.702C935.428 411.105 934.753 410.164 934.488 409.064L933.726 405.835L948.607 402.302L949.376 405.53C949.634 406.637 949.455 407.778 948.859 408.745C948.263 409.713 947.323 410.389 946.217 410.655L939.614 412.219C939.283 412.298 938.952 412.338 938.627 412.338H938.62ZM937.177 407.963L937.283 408.401C937.369 408.759 937.587 409.07 937.905 409.263C938.223 409.455 938.594 409.521 938.952 409.428L945.554 407.864C945.912 407.778 946.223 407.559 946.415 407.241C946.607 406.923 946.667 406.551 946.588 406.193L946.482 405.756L937.177 407.963Z" fill="black"/>
<path d="M837.4 714.592H834.532V488.178L888.957 475.868L889.593 478.666L837.4 490.471V714.592Z" fill="black"/>
<path d="M837.36 507.316L834.572 506.653C834.724 506.017 838.492 490.963 857.38 483.035L858.486 485.68C841.003 493.018 837.393 507.177 837.36 507.316Z" fill="black"/>
<path d="M880.156 485.255C879.374 485.255 878.613 485.037 877.93 484.619C876.964 484.023 876.288 483.081 876.023 481.981L875.348 479.13L889.222 475.836L889.897 478.686C890.441 480.967 889.023 483.267 886.739 483.81L881.142 485.136C880.811 485.216 880.487 485.255 880.156 485.255ZM878.798 481.258L878.811 481.318C878.99 482.06 879.738 482.524 880.48 482.345L886.076 481.02C886.818 480.841 887.282 480.092 887.103 479.349L887.089 479.29L878.791 481.258H878.798Z" fill="black"/>
<path d="M783.114 756.559H780.246V554.221L828.976 543.204L829.605 546.002L783.114 556.515V756.559Z" fill="black"/>
<path d="M783.074 571.477L780.286 570.814C780.418 570.244 783.803 556.721 800.743 549.615L801.849 552.26C786.313 558.782 783.101 571.351 783.068 571.477H783.074Z" fill="black"/>
<path d="M821.373 551.829C819.446 551.829 817.697 550.51 817.234 548.554L816.664 546.155L829.353 543.145L829.923 545.545C830.466 547.825 829.049 550.125 826.764 550.669L822.353 551.716C822.022 551.796 821.698 551.829 821.373 551.829ZM820.174 548.269C820.472 548.786 821.082 549.065 821.698 548.925L826.108 547.878C826.718 547.732 827.135 547.208 827.174 546.612L820.181 548.269H820.174Z" fill="black"/>
<path d="M730.55 790.38H727.682V603.646L772.723 593.458L773.352 596.255L730.55 605.94V790.38Z" fill="black"/>
<path d="M730.51 619.675L727.722 619.012C727.848 618.482 730.98 605.96 746.663 599.377L747.769 602.022C733.49 608.015 730.536 619.562 730.51 619.675Z" fill="black"/>
<path d="M765.888 601.591C765.107 601.591 764.345 601.372 763.663 600.955C762.696 600.358 762.021 599.417 761.756 598.317L761.252 596.209L773.173 593.378L773.67 595.486C773.935 596.593 773.749 597.733 773.153 598.701C772.557 599.669 771.617 600.345 770.517 600.61L766.875 601.479C766.544 601.558 766.213 601.598 765.888 601.598V601.591ZM764.895 598.29C765.226 598.635 765.723 598.801 766.219 598.681L769.862 597.813C770.219 597.727 770.531 597.508 770.723 597.19C770.789 597.084 770.835 596.978 770.868 596.865L764.895 598.284V598.29Z" fill="black"/>
<path d="M680.33 820.919H677.463V648.569L719.099 639.156L719.728 641.954L680.33 650.863V820.919Z" fill="black"/>
<path d="M680.29 663.465L677.502 662.802C677.622 662.311 680.522 650.704 695.039 644.619L696.145 647.264C682.959 652.799 680.317 663.359 680.29 663.465Z" fill="black"/>
<path d="M712.98 646.833C712.198 646.833 711.437 646.614 710.755 646.197C709.788 645.6 709.112 644.659 708.847 643.558L708.41 641.716L719.622 639.057L720.06 640.9C720.603 643.18 719.185 645.481 716.901 646.024L713.967 646.72C713.636 646.8 713.311 646.84 712.98 646.84V646.833ZM712.251 643.751C712.556 643.943 712.927 644.009 713.304 643.923L716.238 643.227C716.616 643.141 716.914 642.902 717.099 642.597L712.245 643.751H712.251Z" fill="black"/>
<path d="M628.706 846.739H625.839V685.029L664.952 676.179L665.588 678.977L628.706 687.322V846.739Z" fill="black"/>
<path d="M628.667 699.095L625.879 698.425C625.991 697.961 628.72 687.037 642.376 681.31L643.482 683.954C631.23 689.098 628.76 698.69 628.66 699.095H628.667Z" fill="black"/>
<path d="M659.376 683.517C657.449 683.517 655.7 682.198 655.237 680.242L654.853 678.598L665.535 676.06L665.926 677.697C666.469 679.984 665.052 682.284 662.767 682.821L660.356 683.391C660.025 683.471 659.701 683.504 659.376 683.504V683.517ZM658.939 680.58C659.177 680.66 659.436 680.68 659.701 680.614L662.111 680.044C662.37 679.977 662.601 679.851 662.773 679.672L658.939 680.58Z" fill="black"/>
<path d="M577.546 870.231H574.685V719.121L611.289 710.841L611.918 713.639L577.546 721.414V870.231Z" fill="black"/>
<path d="M577.507 732.358L574.719 731.689C574.825 731.258 577.388 721.003 590.182 715.634L591.288 718.279C579.891 723.065 577.593 731.98 577.507 732.358Z" fill="black"/>
<path d="M606.229 717.848C605.448 717.848 604.686 717.629 604.004 717.211C603.037 716.615 602.362 715.673 602.097 714.573L601.766 713.181L603.15 712.803L611.945 710.715L612.262 712.134C612.812 714.447 611.395 716.747 609.11 717.284L607.216 717.735C606.885 717.815 606.554 717.854 606.229 717.854V717.848ZM608.567 714.454L606.441 714.958C606.481 714.958 606.521 714.944 606.554 714.938L608.448 714.487C608.487 714.48 608.527 714.467 608.567 714.454Z" fill="black"/>
<path d="M525.499 890.011H523.347V749.772L557.169 742.122L557.645 744.217L525.499 751.489V890.011Z" fill="black"/>
<path d="M525.466 761.803L523.38 761.306C523.472 760.909 525.823 751.502 537.599 746.564L538.426 748.546C527.704 753.047 525.486 761.717 525.466 761.803Z" fill="black"/>
<path d="M552.447 748.115C551.765 748.115 551.089 747.922 550.486 747.558C549.632 747.034 549.043 746.206 548.811 745.231L548.566 744.184L557.513 742.062L557.758 743.11C557.99 744.084 557.824 745.085 557.301 745.94C556.778 746.789 555.95 747.385 554.977 747.617L553.314 748.015C553.023 748.082 552.731 748.115 552.44 748.115H552.447ZM551.553 745.682C551.553 745.682 551.592 745.708 551.612 745.722C551.976 745.947 552.4 746.013 552.818 745.914L554.486 745.516C554.904 745.417 555.255 745.165 555.473 744.8C555.486 744.78 555.5 744.76 555.513 744.734L551.559 745.675L551.553 745.682Z" fill="black"/>
<path d="M478.478 908.393H476.326V778.713L507.651 771.627L508.121 773.728L478.478 780.437V908.393Z" fill="black"/>
<path d="M478.445 789.923L476.359 789.426C476.445 789.054 478.63 780.324 489.551 775.744L490.379 777.726C480.511 781.869 478.525 789.598 478.445 789.923Z" fill="black"/>
<path d="M503.306 777.328C501.704 777.328 500.247 776.228 499.863 774.604L499.618 773.556L508.048 771.554L508.293 772.602C508.744 774.504 507.565 776.413 505.664 776.864L504.128 777.229C503.856 777.295 503.585 777.321 503.313 777.321L503.306 777.328ZM502.697 775.035C502.975 775.174 503.3 775.22 503.631 775.141L505.167 774.776C505.492 774.697 505.763 774.511 505.956 774.259L502.697 775.035Z" fill="black"/>
<path d="M428.411 925.389H426.265V804.499L455.504 797.884L455.981 799.979L428.411 806.216V925.389Z" fill="black"/>
<path d="M428.384 815.019L426.298 814.522C426.378 814.177 428.424 806.004 438.63 801.722L439.457 803.704C430.298 807.549 428.457 814.714 428.384 815.019Z" fill="black"/>
<path d="M451.478 803.333C449.954 803.333 448.564 802.286 448.199 800.734L447.948 799.687L455.948 797.791L456.2 798.839C456.63 800.648 455.504 802.471 453.696 802.902L452.259 803.24C452.001 803.3 451.736 803.333 451.484 803.333H451.478ZM451.16 801.145C451.352 801.198 451.557 801.205 451.762 801.152L453.193 800.814C453.398 800.768 453.584 800.668 453.729 800.536L451.16 801.145Z" fill="black"/>
<path d="M375.535 943.048H373.39V825.738L401.781 819.321L402.258 821.416L375.535 827.461V943.048Z" fill="black"/>
<path d="M375.509 835.98L373.423 835.483C373.502 835.145 375.489 827.203 385.41 823.04L386.238 825.022C377.37 828.741 375.582 835.688 375.509 835.98Z" fill="black"/>
<path d="M397.88 824.671C396.384 824.671 395.026 823.644 394.668 822.126L394.423 821.078L402.245 819.222L402.496 820.27C402.914 822.046 401.814 823.829 400.046 824.247L398.655 824.578C398.404 824.638 398.145 824.671 397.894 824.671H397.88ZM397.715 822.51C397.854 822.53 398 822.523 398.145 822.49L399.536 822.159C399.682 822.126 399.814 822.066 399.927 821.98L397.708 822.503L397.715 822.51Z" fill="black"/>
<path d="M326.091 958.407H323.938V846.897L350.959 840.785L351.436 842.887L326.091 848.621V958.407Z" fill="black"/>
<path d="M326.058 856.682L323.971 856.184C324.044 855.866 325.938 848.289 335.389 844.325L336.217 846.307C327.819 849.834 326.124 856.403 326.058 856.682Z" fill="black"/>
<path d="M347.263 845.983C346.681 845.983 346.104 845.824 345.594 845.505C344.866 845.055 344.363 844.352 344.164 843.523L343.919 842.476L351.456 840.686L351.701 841.734C352.105 843.451 351.045 845.174 349.33 845.578L348.005 845.89C347.76 845.95 347.508 845.976 347.263 845.976V845.983Z" fill="black"/>
<path d="M275.103 973.004H272.951V863.224L299.567 857.205L300.037 859.307L275.103 864.948V973.004Z" fill="black"/>
<path d="M275.07 872.876L272.984 872.379C273.056 872.06 274.924 864.603 284.236 860.699L285.063 862.681C276.805 866.148 275.136 872.604 275.07 872.883V872.876Z" fill="black"/>
<path d="M295.931 862.349C294.501 862.349 293.203 861.368 292.858 859.916L292.606 858.869L300.057 857.099L300.302 858.146C300.706 859.844 299.653 861.554 297.958 861.951L296.653 862.263C296.408 862.323 296.163 862.349 295.924 862.349H295.931Z" fill="black"/>
<path d="M178.419 997.432H176.273V896.747L200.73 891.218L201.207 893.313L178.419 898.47V997.432Z" fill="black"/>
<path d="M178.392 905.682L176.299 905.185C176.366 904.893 178.087 898.012 186.664 894.413L187.492 896.395C179.915 899.577 178.399 905.615 178.385 905.675L178.392 905.682Z" fill="black"/>
<path d="M197.412 896.11C196.863 896.11 196.326 895.957 195.849 895.666C195.167 895.248 194.697 894.592 194.512 893.81L194.267 892.762L201.267 891.098L201.512 892.146C201.697 892.921 201.565 893.723 201.148 894.406C200.73 895.082 200.075 895.56 199.293 895.745L198.101 896.03C197.869 896.083 197.638 896.11 197.406 896.11H197.412Z" fill="black"/>
<path d="M135.319 1008.7H133.173V909.819L157.206 904.383L157.677 906.484L135.319 911.542V1008.7Z" fill="black"/>
<path d="M135.292 918.615L133.206 918.117C133.272 917.832 134.967 911.064 143.391 907.531L144.219 909.513C136.842 912.609 135.352 918.376 135.292 918.621V918.615Z" fill="black"/>
<path d="M153.955 909.228C153.412 909.228 152.882 909.076 152.412 908.784C151.743 908.373 151.272 907.717 151.087 906.955L150.842 905.907L157.756 904.263L158.008 905.311C158.385 906.895 157.398 908.493 155.816 908.864L154.643 909.142C154.418 909.195 154.186 909.222 153.955 909.222V909.228Z" fill="black"/>
<path d="M94.7214 1018.57H92.5757V922.917L115.841 917.66L116.318 919.755L94.7214 924.64V1018.57Z" fill="black"/>
<path d="M94.695 931.461L92.6089 930.964C92.6751 930.686 94.3109 924.13 102.483 920.703L103.311 922.685C96.1917 925.675 94.7546 931.229 94.695 931.468V931.461Z" fill="black"/>
<path d="M112.702 922.413C112.172 922.413 111.656 922.267 111.192 921.982C110.536 921.578 110.073 920.941 109.901 920.186L109.649 919.138L116.404 917.534L116.649 918.582C117.013 920.133 116.053 921.697 114.503 922.062L113.371 922.333C113.146 922.386 112.921 922.413 112.695 922.413H112.702Z" fill="black"/>
<path d="M55.5352 1026.31H53.3828V937.003L75.1515 932.078L75.6283 934.173L55.5352 938.72V1026.31Z" fill="black"/>
<path d="M55.5022 945.044L53.416 944.54C53.4756 944.282 55.0187 938.123 62.6679 934.915L63.4957 936.897C56.8929 939.668 55.5551 944.825 55.5022 945.044Z" fill="black"/>
<path d="M72.251 936.658C70.9993 936.658 69.8602 935.797 69.5556 934.524L69.3105 933.476L75.7544 931.952L75.9995 932.999C76.1716 933.722 76.0524 934.464 75.6617 935.094C75.2709 935.724 74.6617 936.161 73.9464 936.333L72.8868 936.585C72.6749 936.638 72.4563 936.658 72.251 936.658Z" fill="black"/>
<path d="M21.051 1034.59H18.8987V949.518L39.6673 944.818L40.1442 946.92L21.051 951.235V1034.59Z" fill="black"/>
<path d="M21.018 957.234L18.9319 956.731C18.9915 956.479 20.4617 950.599 27.7731 947.53L28.601 949.512C22.3359 952.143 21.071 957.022 21.018 957.234Z" fill="black"/>
<path d="M36.9056 949.28C36.4156 949.28 35.9321 949.147 35.5016 948.875C34.8923 948.497 34.4619 947.907 34.2963 947.205L34.0513 946.157L40.2832 944.679L40.5282 945.727C40.6938 946.429 40.5746 947.145 40.1971 947.762C39.8196 948.371 39.2302 948.802 38.5282 948.968L37.5215 949.207C37.3162 949.253 37.1043 949.28 36.8924 949.28H36.9056Z" fill="black"/>
<path d="M-9.66478 1041.79H-11.8171V959.369L8.32237 954.809L8.79919 956.91L-9.66478 961.086V1041.79Z" fill="black"/>
<path d="M-9.6978 966.873L-11.7839 966.369C-11.7243 966.124 -10.3005 960.409 -3.20097 957.433L-2.37314 959.415C-8.41963 961.954 -9.65144 966.667 -9.6978 966.873Z" fill="black"/>
<path d="M5.65344 959.196C5.16998 959.196 4.69978 959.064 4.27594 958.805C3.67328 958.434 3.25606 957.851 3.09711 957.168L2.85205 956.121L8.95815 954.676L9.2032 955.723C9.53433 957.141 8.66013 958.56 7.24287 958.898L6.26935 959.13C6.06404 959.177 5.85875 959.203 5.65344 959.203V959.196Z" fill="black"/>
<path d="M-40.4404 1049.15H-42.5928V969.405L-23.089 964.997L-22.6122 967.091L-40.4404 971.128V1049.15Z" fill="black"/>
<path d="M-40.4734 976.703L-42.5596 976.199C-42.5066 975.967 -41.1158 970.419 -34.2349 967.535L-33.407 969.517C-39.235 971.964 -40.4204 976.511 -40.4734 976.703Z" fill="black"/>
<path d="M-25.6585 969.305C-26.1288 969.305 -26.599 969.173 -27.0096 968.921C-27.599 968.556 -28.0096 967.986 -28.1685 967.317L-28.4136 966.269L-22.4399 964.851L-22.1883 965.898C-21.8571 967.284 -22.7181 968.682 -24.1088 969.014L-25.0493 969.239C-25.2479 969.286 -25.4532 969.312 -25.6519 969.312L-25.6585 969.305Z" fill="black"/>
<path d="M-70.0105 1055.59H-72.1628V978.208L-53.2088 973.919L-52.7386 976.02L-70.0105 979.925V1055.59Z" fill="black"/>
<path d="M-70.0435 985.321L-72.1296 984.817C-72.0767 984.592 -70.7256 979.196 -64.0367 976.385L-63.2089 978.367C-68.8514 980.734 -69.9971 985.128 -70.0435 985.314V985.321Z" fill="black"/>
<path d="M-55.6922 978.168C-56.8445 978.168 -57.8909 977.379 -58.1624 976.213L-58.4075 975.165L-52.553 973.773L-52.308 974.821C-51.9835 976.186 -52.8312 977.558 -54.1955 977.876L-55.1094 978.095C-55.3081 978.142 -55.5001 978.161 -55.6922 978.161V978.168Z" fill="black"/>
<path d="M-98.4812 1062.49H-100.634V985.095L-81.6861 980.813L-81.2093 982.907L-98.4812 986.818V1062.49Z" fill="black"/>
<path d="M-98.5144 992.208L-100.601 991.704C-100.548 991.479 -99.1966 986.083 -92.5077 983.272L-91.6799 985.254C-97.3224 987.621 -98.4681 992.016 -98.5144 992.201V992.208Z" fill="black"/>
<path d="M-84.1631 985.055C-85.3155 985.055 -86.3552 984.266 -86.6334 983.1L-86.8784 982.052L-81.024 980.66L-80.7789 981.708C-80.4544 983.073 -81.3021 984.439 -82.6664 984.764L-83.5803 984.982C-83.779 985.029 -83.9711 985.049 -84.1631 985.049V985.055Z" fill="black"/>
<path d="M-122.886 1067.81H-125.038V992.221L-106.515 988.038L-106.044 990.133L-122.886 993.945V1067.81Z" fill="black"/>
<path d="M-122.919 999.195L-125.005 998.691C-124.952 998.465 -123.634 993.189 -117.091 990.445L-116.263 992.427C-121.76 994.734 -122.879 999.016 -122.919 999.195Z" fill="black"/>
<path d="M-108.932 992.234C-110.064 992.234 -111.097 991.459 -111.369 990.305L-111.614 989.258L-105.846 987.893L-105.601 988.94C-105.283 990.286 -106.117 991.638 -107.462 991.956L-108.356 992.168C-108.548 992.214 -108.74 992.234 -108.932 992.234Z" fill="black"/>
<path d="M-153.396 1073.92H-155.542V1000.79L-137.608 996.736L-137.131 998.837L-153.396 1002.52V1073.92Z" fill="black"/>
<path d="M-153.423 1007.57L-155.509 1007.07C-155.456 1006.85 -154.178 1001.73 -147.833 999.069L-147.006 1001.05C-152.304 1003.27 -153.383 1007.39 -153.423 1007.57Z" fill="black"/>
<path d="M-139.939 1000.87C-141.052 1000.87 -142.065 1000.1 -142.33 998.969L-142.582 997.922L-136.932 996.583L-136.687 997.63C-136.376 998.949 -137.191 1000.28 -138.515 1000.59L-139.376 1000.8C-139.568 1000.85 -139.754 1000.87 -139.946 1000.87H-139.939Z" fill="black"/>
<path d="M226.605 985.215H224.453V881.838L251.082 876.171L251.526 878.279L226.605 883.582V985.215Z" fill="black"/>
<path d="M226.572 891.012L224.486 890.489C224.559 890.19 226.433 883.137 235.758 879.458L236.546 881.46C228.241 884.741 226.585 890.953 226.572 891.019V891.012Z" fill="black"/>
<path d="M247.44 881.142C246.016 881.142 244.711 880.201 244.36 878.822L244.089 877.748L251.546 876.084L251.804 877.099C251.996 877.874 251.877 878.676 251.453 879.365C251.016 880.075 250.288 880.592 249.447 880.777L248.142 881.069C247.904 881.122 247.665 881.149 247.433 881.149L247.44 881.142Z" fill="black"/>
<path d="M946.905 601.989H944.044V325.236L1010.38 310.235L1011.01 313.032L946.905 327.529V601.989Z" fill="black"/>
<path d="M946.866 348.317L944.078 347.654C944.263 346.879 948.833 328.616 971.793 318.985L972.899 321.63C951.343 330.678 946.905 348.145 946.866 348.324V348.317Z" fill="black"/>
<path d="M999.072 321.212C998.291 321.212 997.529 320.993 996.847 320.576C995.88 319.979 995.204 319.038 994.939 317.937L994.045 314.152L1010.39 310.274L1011.29 314.059C1011.56 315.167 1011.37 316.307 1010.77 317.274C1010.18 318.242 1009.24 318.918 1008.14 319.184L1000.07 321.099C999.734 321.179 999.403 321.219 999.079 321.219L999.072 321.212ZM997.489 316.28L997.728 317.274C997.814 317.639 998.032 317.944 998.35 318.136C998.668 318.328 999.039 318.395 999.397 318.302L1007.47 316.386C1007.83 316.3 1008.14 316.081 1008.33 315.763C1008.52 315.445 1008.58 315.074 1008.5 314.716L1008.26 313.721L997.483 316.28H997.489Z" fill="black"/>
<path d="M1004.59 522.662H1001.72V210.318L1076.48 193.408L1077.11 196.206L1004.59 212.605V522.662Z" fill="black"/>
<path d="M1004.55 236.184L1001.76 235.521C1001.97 234.653 1007.11 214.117 1032.95 203.272L1034.05 205.917C1009.62 216.172 1004.6 235.985 1004.55 236.184Z" fill="black"/>
<path d="M1063.41 205.506C1061.48 205.506 1059.74 204.187 1059.27 202.231L1058.22 197.783L1076.32 193.488L1077.37 197.936C1077.91 200.223 1076.5 202.516 1074.21 203.06L1064.39 205.393C1064.06 205.473 1063.74 205.506 1063.41 205.506ZM1061.67 199.911L1062.06 201.568C1062.24 202.311 1062.99 202.775 1063.73 202.596L1073.56 200.262C1074.3 200.083 1074.76 199.334 1074.58 198.592L1074.19 196.935L1061.67 199.904V199.911Z" fill="black"/>
<path d="M1062.05 425.656H1059.19V113.312L1133.94 96.4021L1134.58 99.1995L1062.05 115.606V425.656Z" fill="black"/>
<path d="M1062.01 139.185L1059.22 138.522C1059.42 137.653 1064.56 117.117 1090.41 106.272L1091.51 108.917C1067.07 119.172 1062.05 138.986 1062.01 139.185Z" fill="black"/>
<path d="M1120.87 108.506C1118.94 108.506 1117.19 107.187 1116.73 105.232L1115.68 100.784L1133.78 96.4883L1134.83 100.936C1135.37 103.223 1133.96 105.517 1131.67 106.06L1121.85 108.394C1121.52 108.473 1121.19 108.506 1120.87 108.506ZM1119.13 102.912L1119.52 104.569C1119.7 105.311 1120.45 105.775 1121.19 105.596L1131.01 103.263C1131.75 103.084 1132.21 102.335 1132.04 101.592L1131.65 99.9353L1119.13 102.905V102.912Z" fill="black"/>
<path d="M1127.18 287.153H1124.31V-25.1904L1199.08 -42.1072L1199.71 -39.3032L1127.18 -22.9035V287.153Z" fill="black"/>
<path d="M1127.14 0.675293L1124.35 0.0124207C1124.56 -0.855957 1129.7 -21.3921 1155.54 -32.2368L1156.65 -29.5919C1132.13 -19.304 1127.19 0.476425 1127.14 0.675293Z" fill="black"/>
<path d="M1186 -30.0029C1184.08 -30.0029 1182.33 -31.3221 1181.86 -33.2776L1180.81 -37.7255L1198.91 -42.021L1199.96 -37.5731C1200.51 -35.2927 1199.09 -32.9926 1196.8 -32.449L1186.98 -30.1156C1186.65 -30.0361 1186.32 -30.0029 1186 -30.0029H1186ZM1184.26 -35.5977L1184.65 -33.9405C1184.83 -33.198 1185.58 -32.734 1186.32 -32.913L1196.15 -35.2463C1196.89 -35.4253 1197.35 -36.1744 1197.18 -36.9168L1196.78 -38.574L1184.26 -35.6043V-35.5977Z" fill="black"/>
<path d="M888.633 1136.08C853.221 1136.08 827.208 1051.4 826.115 1047.78L827.486 1047.37C827.751 1048.24 854.281 1134.64 888.639 1134.64C888.732 1134.64 888.818 1134.64 888.911 1134.64C923.388 1134.18 944.203 1048.07 944.415 1047.2L945.806 1047.53C944.952 1051.12 924.514 1135.61 888.931 1136.08C888.831 1136.08 888.732 1136.08 888.633 1136.08Z" fill="black"/>
<path d="M843.281 1054.58H841.85V1088.58H843.281V1054.58Z" fill="black"/>
<path d="M848.301 1058.14H846.87V1096.76H848.301V1058.14Z" fill="black"/>
<path d="M930.077 1058.95H928.647V1093.56H930.077V1058.95Z" fill="black"/>
<path d="M925.541 1061.84H924.11V1103.09H925.541V1061.84Z" fill="black"/>
<path d="M858.427 1061.84H856.996V1114.93H858.427V1061.84Z" fill="black"/>
<path d="M864.162 1063.82H862.731V1120.89H864.162V1063.82Z" fill="black"/>
<path d="M873.202 1064.84H871.771V1129.9H873.202V1064.84Z" fill="black"/>
<path d="M879.427 1065.28H877.997V1132.96H879.427V1065.28Z" fill="black"/>
<path d="M908.401 1064.84H906.971V1126.67H908.401V1064.84Z" fill="black"/>
<path d="M914.627 1065.28H913.196V1119.51H914.627V1065.28Z" fill="black"/>
<path d="M889.52 1065.1H888.09V1135.36H889.52V1065.1Z" fill="black"/>
<path d="M896.441 1065.1H895.01V1134.18H896.441V1065.1Z" fill="black"/>
<path d="M641.203 1153.69C613.839 1153.69 593.799 1088.44 592.951 1085.65L594.322 1085.24C594.527 1085.91 614.892 1152.25 641.203 1152.25C641.27 1152.25 641.343 1152.25 641.409 1152.25C667.8 1151.9 683.787 1085.79 683.946 1085.12L685.337 1085.45C684.681 1088.22 668.926 1153.33 641.429 1153.69C641.356 1153.69 641.276 1153.69 641.203 1153.69Z" fill="black"/>
<path d="M606.481 1090.84H605.05V1117H606.481V1090.84Z" fill="black"/>
<path d="M610.349 1093.58H608.918V1123.29H610.349V1093.58Z" fill="black"/>
<path d="M673.244 1094.2H671.813V1120.81H673.244V1094.2Z" fill="black"/>
<path d="M669.76 1096.42H668.33V1128.15H669.76V1096.42Z" fill="black"/>
<path d="M618.13 1096.42H616.7V1137.26H618.13V1096.42Z" fill="black"/>
<path d="M622.547 1097.94H621.117V1141.85H622.547V1097.94Z" fill="black"/>
<path d="M629.495 1098.73H628.064V1148.77H629.495V1098.73Z" fill="black"/>
<path d="M634.289 1099.07H632.859V1151.13H634.289V1099.07Z" fill="black"/>
<path d="M656.575 1098.73H655.144V1146.29H656.575V1098.73Z" fill="black"/>
<path d="M661.363 1099.07H659.932V1140.78H661.363V1099.07Z" fill="black"/>
<path d="M642.051 1098.93H640.621V1152.98H642.051V1098.93Z" fill="black"/>
<path d="M647.376 1098.93H645.945V1152.07H647.376V1098.93Z" fill="black"/>
<path d="M415.066 1184.95C386.41 1184.95 365.35 1116.39 364.462 1113.46L365.489 1113.14C365.701 1113.85 387.205 1183.88 415.066 1183.88C415.139 1183.88 415.212 1183.88 415.285 1183.88C443.246 1183.51 460.12 1112.4 460.286 1111.68L461.332 1111.92C460.643 1114.89 444.093 1184.58 415.298 1184.96C415.218 1184.96 415.139 1184.96 415.06 1184.96L415.066 1184.95Z" fill="black"/>
<path d="M378.284 1122.13H377.211V1146.52H378.284V1122.13Z" fill="black"/>
<path d="M382.35 1124.32H381.277V1153.14H382.35V1124.32Z" fill="black"/>
<path d="M448.597 1120.56H447.524V1150.54H448.597V1120.56Z" fill="black"/>
<path d="M444.921 1122.72H443.848V1158.27H444.921V1122.72Z" fill="black"/>
<path d="M390.549 1128.23H389.476V1167.86H390.549V1128.23Z" fill="black"/>
<path d="M395.198 1129.25H394.125V1172.69H395.198V1129.25Z" fill="black"/>
<path d="M402.523 1130.03H401.45V1179.98H402.523V1130.03Z" fill="black"/>
<path d="M407.563 1130.35H406.49V1182.46H407.563V1130.35Z" fill="black"/>
<path d="M431.033 1129.25H429.96V1177.38H431.033V1129.25Z" fill="black"/>
<path d="M436.08 1126.99H435.007V1171.57H436.08V1126.99Z" fill="black"/>
<path d="M415.742 1130.66H414.669V1184.41H415.742V1130.66Z" fill="black"/>
<path d="M421.344 1130.51H420.272V1183.46H421.344V1130.51Z" fill="black"/>
<path d="M209.684 1195.36C185.591 1195.36 167.909 1137.8 167.167 1135.34L168.194 1135.03C168.372 1135.63 186.379 1194.29 209.684 1194.29C209.744 1194.29 209.804 1194.29 209.87 1194.29C233.248 1193.98 247.381 1134.41 247.526 1133.81L248.573 1134.06C247.99 1136.55 234.102 1195.05 209.89 1195.37C209.824 1195.37 209.757 1195.37 209.691 1195.37L209.684 1195.36Z" fill="black"/>
<path d="M178.922 1142.6H177.849V1163.05H178.922V1142.6Z" fill="black"/>
<path d="M182.339 1144.43H181.267V1168.6H182.339V1144.43Z" fill="black"/>
<path d="M237.884 1141.28H236.811V1166.42H237.884V1141.28Z" fill="black"/>
<path d="M234.804 1143.09H233.731V1172.9H234.804V1143.09Z" fill="black"/>
<path d="M189.214 1147.71H188.141V1180.94H189.214V1147.71Z" fill="black"/>
<path d="M193.108 1148.57H192.035V1184.99H193.108V1148.57Z" fill="black"/>
<path d="M199.247 1149.22H198.174V1191.11H199.247V1149.22Z" fill="black"/>
<path d="M203.479 1149.49H202.406V1193.19H203.479V1149.49Z" fill="black"/>
<path d="M223.161 1148.57H222.089V1188.92H223.161V1148.57Z" fill="black"/>
<path d="M227.387 1146.67H226.314V1184.05H227.387V1146.67Z" fill="black"/>
<path d="M210.333 1149.76H209.26V1194.82H210.333V1149.76Z" fill="black"/>
<path d="M215.036 1149.62H213.963V1194.02H215.036V1149.62Z" fill="black"/>
<path d="M55.9459 1201.22C35.6011 1201.22 20.6604 1152.59 20.0312 1150.51L20.8525 1150.26C21.0048 1150.76 36.2303 1200.36 55.9459 1200.36C55.9989 1200.36 56.0519 1200.36 56.0983 1200.36C75.8735 1200.09 87.8274 1149.73 87.9466 1149.22L88.7811 1149.42C88.291 1151.53 76.5557 1200.96 56.1049 1201.23C56.0519 1201.23 55.9923 1201.23 55.9393 1201.23L55.9459 1201.22Z" fill="black"/>
<path d="M29.9188 1156.64H29.0579V1173.93H29.9188V1156.64Z" fill="black"/>
<path d="M32.8062 1158.2H31.9453V1178.63H32.8062V1158.2Z" fill="black"/>
<path d="M79.7543 1155.53H78.8933V1176.78H79.7543V1155.53Z" fill="black"/>
<path d="M77.1517 1157.07H76.2908V1182.26H77.1517V1157.07Z" fill="black"/>
<path d="M38.6143 1160.97H37.7534V1189.06H38.6143V1160.97Z" fill="black"/>
<path d="M41.9124 1161.69H41.0515V1192.48H41.9124V1161.69Z" fill="black"/>
<path d="M47.098 1162.25H46.2371V1197.66H47.098V1162.25Z" fill="black"/>
<path d="M50.6742 1162.47H49.8132V1199.41H50.6742V1162.47Z" fill="black"/>
<path d="M67.3104 1161.69H66.4495V1195.8H67.3104V1161.69Z" fill="black"/>
<path d="M70.8866 1160.08H70.0256V1191.68H70.8866V1160.08Z" fill="black"/>
<path d="M56.4691 1162.69H55.6082V1200.79H56.4691V1162.69Z" fill="black"/>
<path d="M60.4427 1162.58H59.5818V1200.11H60.4427V1162.58Z" fill="black"/>
<path d="M-59.9839 1205.21C-78.8121 1205.21 -92.6203 1160.24 -93.2031 1158.32L-92.3819 1158.07C-92.2428 1158.53 -78.1763 1204.34 -59.9839 1204.34C-59.9375 1204.34 -59.8911 1204.34 -59.8382 1204.34C-41.5861 1204.1 -30.5461 1157.58 -30.4402 1157.11L-29.6057 1157.31C-30.0561 1159.25 -40.9106 1204.95 -59.8315 1205.21C-59.8845 1205.21 -59.9375 1205.21 -59.9905 1205.21H-59.9839Z" fill="black"/>
<path d="M-83.9975 1163.98H-84.8584V1179.96H-83.9975V1163.98Z" fill="black"/>
<path d="M-81.3285 1165.42H-82.1895V1184.3H-81.3285V1165.42Z" fill="black"/>
<path d="M-37.9435 1162.95H-38.8044V1182.59H-37.9435V1162.95Z" fill="black"/>
<path d="M-40.3475 1164.37H-41.2085V1187.65H-40.3475V1164.37Z" fill="black"/>
<path d="M-75.9577 1167.98H-76.8186V1193.94H-75.9577V1167.98Z" fill="black"/>
<path d="M-72.9179 1168.65H-73.7788V1197.1H-72.9179V1168.65Z" fill="black"/>
<path d="M-68.1229 1169.16H-68.9839V1201.87H-68.1229V1169.16Z" fill="black"/>
<path d="M-64.8183 1169.36H-65.6792V1203.5H-64.8183V1169.36Z" fill="black"/>
<path d="M-49.4472 1168.65H-50.3081V1200.17H-49.4472V1168.65Z" fill="black"/>
<path d="M-46.1425 1167.16H-47.0034V1196.36H-46.1425V1167.16Z" fill="black"/>
<path d="M-59.4606 1169.57H-60.3215V1204.77H-59.4606V1169.57Z" fill="black"/>
<path d="M-55.7916 1169.47H-56.6526V1204.15H-55.7916V1169.47Z" fill="black"/>
<path d="M-152.827 1209.79C-170.483 1209.79 -183.417 1167.65 -183.967 1165.86L-183.145 1165.6C-183.013 1166.04 -169.847 1208.92 -152.827 1208.92H-152.694C-135.621 1208.69 -125.29 1165.15 -125.184 1164.7L-124.349 1164.9C-124.773 1166.72 -134.946 1209.55 -152.681 1209.78C-152.727 1209.78 -152.78 1209.78 -152.827 1209.78V1209.79Z" fill="black"/>
<path d="M-175.291 1171.15H-176.152V1186.11H-175.291V1171.15Z" fill="black"/>
<path d="M-172.794 1172.49H-173.655V1190.17H-172.794V1172.49Z" fill="black"/>
<path d="M-132.158 1170.19H-133.019V1188.58H-132.158V1170.19Z" fill="black"/>
<path d="M-134.416 1171.51H-135.277V1193.31H-134.416V1171.51Z" fill="black"/>
<path d="M-167.761 1174.9H-168.622V1199.21H-167.761V1174.9Z" fill="black"/>
<path d="M-164.913 1175.52H-165.774V1202.16H-164.913V1175.52Z" fill="black"/>
<path d="M-160.423 1176H-161.284V1206.64H-160.423V1176Z" fill="black"/>
<path d="M-157.324 1176.19H-158.185V1208.16H-157.324V1176.19Z" fill="black"/>
<path d="M-142.926 1175.52H-143.787V1205.04H-142.926V1175.52Z" fill="black"/>
<path d="M-139.833 1174.13H-140.694V1201.48H-139.833V1174.13Z" fill="black"/>
<path d="M-152.31 1176.38H-153.171V1209.35H-152.31V1176.38Z" fill="black"/>
<path d="M-148.873 1176.29H-149.734V1208.77H-148.873V1176.29Z" fill="black"/>
<path d="M1184.67 1107.01C1134.07 1107.01 1096.92 986.063 1095.35 980.899L1097.41 980.276C1097.79 981.522 1135.66 1104.86 1184.68 1104.86C1184.81 1104.86 1184.94 1104.86 1185.07 1104.86C1234.25 1104.22 1263.98 981.284 1264.27 980.044L1266.36 980.541C1265.14 985.678 1235.95 1106.34 1185.1 1107.02C1184.96 1107.02 1184.82 1107.02 1184.69 1107.02L1184.67 1107.01Z" fill="black"/>
<path d="M1119.96 990.591H1117.81V1039.14H1119.96V990.591Z" fill="black"/>
<path d="M1127.13 995.675H1124.99V1050.82H1127.13V995.675Z" fill="black"/>
<path d="M1243.9 996.835H1241.75V1046.24H1243.9V996.835Z" fill="black"/>
<path d="M1237.42 1000.95H1235.28V1059.86H1237.42V1000.95Z" fill="black"/>
<path d="M1141.59 1000.95H1139.44V1076.77H1141.59V1000.95Z" fill="black"/>
<path d="M1149.78 1003.78H1147.63V1085.28H1149.78V1003.78Z" fill="black"/>
<path d="M1162.68 1005.24H1160.54V1098.14H1162.68V1005.24Z" fill="black"/>
<path d="M1171.58 1005.87H1169.43V1102.5H1171.58V1005.87Z" fill="black"/>
<path d="M1212.94 1005.24H1210.8V1093.53H1212.94V1005.24Z" fill="black"/>
<path d="M1221.84 1005.87H1219.69V1083.29H1221.84V1005.87Z" fill="black"/>
<path d="M1185.98 1005.62H1183.84V1105.93H1185.98V1005.62Z" fill="black"/>
<path d="M1195.87 1005.62H1193.73V1104.25H1195.87V1005.62Z" fill="black"/>
</svg>
